<svg xmlns="http://www.w3.org/2000/svg" viewBox="-0.5 -0.5 16 16" fill="none" id="Delete-Bin--Streamline-Majesticons" height="16" width="16"><desc>Delete Bin Streamline Icon: https://streamlinehq.com</desc><path fill="#f02202" d="M5.625 4.375h5.625v6.875a1.25 1.25 0 0 1 -1.25 1.25H5a1.25 1.25 0 0 1 -1.25 -1.25V4.375h1.875z" stroke-width="1"></path><path stroke="#f02202" stroke-linecap="round" stroke-linejoin="round" stroke-width="1" d="M12.5 4.375h-1.25M2.5 4.375h1.25m0 0h7.5M3.75 4.375v6.875a1.25 1.25 0 0 0 1.25 1.25h5a1.25 1.25 0 0 0 1.25 -1.25V4.375m-5.625 -0.3125v0A1.5625 1.5625 0 0 1 7.1875 2.5h0.625A1.5625 1.5625 0 0 1 9.375 4.0625v0"></path></svg>